<svg xmlns="http://www.w3.org/2000/svg" viewBox="0 0 900 520"><defs><linearGradient id="bg" x1="0" x2="1"><stop stop-color="#f7f9fc"/><stop offset="1" stop-color="#dce5f0"/></linearGradient><linearGradient id="body" x1=".1" y1=".1" x2=".9" y2=".9"><stop stop-color="#ff6575"/><stop offset=".52" stop-color="#e31b2f"/><stop offset="1" stop-color="#161f4e"/></linearGradient><linearGradient id="glass"><stop stop-color="#eafaff"/><stop offset="1" stop-color="#7b8ca6"/></linearGradient></defs><rect width="900" height="520" rx="40" fill="url(#bg)"/><ellipse cx="450" cy="397" rx="320" ry="36" fill="#0b1230" opacity=".18"/><path d="M126 343c18-67 62-103 137-114l89-12 77-91c17-20 43-31 70-31h125c30 0 57 12 78 34l67 81 77 24c37 12 61 46 61 86v23H126z" fill="url(#body)"/><path d="M373 210l67-80c12-14 29-22 48-22h63v102H373z" fill="url(#glass)"/><path d="M568 108h57c22 0 42 9 57 25l58 77H568V108z" fill="url(#glass)"/><path d="M333 221h430" stroke="#fff" stroke-width="8" opacity=".45"/><path d="M159 296h70m541 0h72" stroke="#fff" stroke-width="14" stroke-linecap="round"/><path d="M151 339h45m612 0h54" stroke="#f4c451" stroke-width="14" stroke-linecap="round"/><circle cx="275" cy="352" r="69" fill="#11172e"/><circle cx="275" cy="352" r="40" fill="#c8d0db"/><circle cx="275" cy="352" r="17" fill="#5d6779"/><circle cx="679" cy="352" r="69" fill="#11172e"/><circle cx="679" cy="352" r="40" fill="#c8d0db"/><circle cx="679" cy="352" r="17" fill="#5d6779"/></svg>
