<svg xmlns="http://www.w3.org/2000/svg" viewBox="0 0 980 640" role="img" aria-labelledby="title desc">
  <title id="title">Step One Auto Dealers</title>
  <desc id="desc">Shield logo with a car silhouette and Step One Auto Dealers wordmark.</desc>
  <defs>
    <linearGradient id="red" x1="0" x2="1" y1="0" y2="1">
      <stop offset="0" stop-color="#ff1b1b"/>
      <stop offset="1" stop-color="#c50018"/>
    </linearGradient>
    <linearGradient id="blueText" x1="0" x2="0" y1="0" y2="1">
      <stop offset="0" stop-color="#e9fbff"/>
      <stop offset=".45" stop-color="#56d3ff"/>
      <stop offset="1" stop-color="#0588c5"/>
    </linearGradient>
    <linearGradient id="navy" x1="0" x2="1" y1="0" y2="1">
      <stop offset="0" stop-color="#09022a"/>
      <stop offset="1" stop-color="#170044"/>
    </linearGradient>
    <filter id="shadow" x="-20%" y="-20%" width="140%" height="140%">
      <feDropShadow dx="0" dy="18" stdDeviation="14" flood-color="#000" flood-opacity=".45"/>
    </filter>
  </defs>

  <rect width="980" height="640" fill="none"/>
  <g filter="url(#shadow)">
    <path d="M490 58c90 62 207 83 328 82-14 140-62 256-143 348-52 58-113 99-185 124-72-25-133-66-185-124-81-92-129-208-143-348 121 1 238-20 328-82Z" fill="url(#red)"/>
    <path d="M490 103c74 45 162 65 265 67-18 106-59 196-123 268-40 45-87 78-142 99-55-21-102-54-142-99-64-72-105-162-123-268 103-2 191-22 265-67Z" fill="url(#navy)" stroke="#14002f" stroke-width="16"/>
    <g stroke="#47d8ff" stroke-linecap="round" stroke-width="4" opacity=".82">
      <path d="M490 132v88"/>
      <path d="M458 137l11 82"/>
      <path d="M426 145l23 76"/>
      <path d="M395 158l34 67"/>
      <path d="M366 174l43 57"/>
      <path d="M338 194l53 46"/>
      <path d="M310 218l65 33"/>
      <path d="M522 137l-11 82"/>
      <path d="M554 145l-23 76"/>
      <path d="M585 158l-34 67"/>
      <path d="M614 174l-43 57"/>
      <path d="M642 194l-53 46"/>
      <path d="M670 218l-65 33"/>
    </g>

    <path d="M180 351h72l28-50c14-25 43-42 79-48l156-26c58-10 119 2 170 34l72 45 61 12 18 33h54v62H180v-62Z" fill="#070022"/>
    <path d="M246 338c23-44 53-62 109-69l152-20c54-7 109 6 156 37l46 30c-57-11-136-22-217-21-94 2-181 15-246 43Z" fill="#f3ffff"/>
    <path d="M351 274c43-16 91-26 141-27l-22 61c-50 2-99 7-147 16l28-50Z" fill="#eefcff"/>
    <path d="M512 247c50 1 100 13 142 34l-16 43c-44-9-93-14-146-16l20-61Z" fill="#eefcff"/>
    <path d="M253 370c13-36 62-37 78 0h275c13-36 62-37 78 0h142" fill="none" stroke="#070022" stroke-width="36" stroke-linecap="round"/>
    <path d="M350 278l-20 64M494 249l-17 66M637 283l49 28" stroke="#070022" stroke-width="9" stroke-linecap="round"/>

    <rect x="112" y="375" width="756" height="104" rx="16" fill="url(#navy)"/>
    <text x="490" y="450" text-anchor="middle" font-family="Arial Black, Arial, Helvetica, sans-serif" font-size="91" letter-spacing="8" fill="url(#blueText)" stroke="#b8f2ff" stroke-width="2">STEP ONE AUTO</text>
    <text x="490" y="523" text-anchor="middle" font-family="Arial, Helvetica, sans-serif" font-size="44" font-weight="800" letter-spacing="18" fill="#fff">DEALERS</text>
  </g>
</svg>
